<?xml version="1.0" standalone="no"?>
<!DOCTYPE svg PUBLIC "-//W3C//DTD SVG 20010904//EN"
 "http://www.w3.org/TR/2001/REC-SVG-20010904/DTD/svg10.dtd">
<svg version="1.0" xmlns="http://www.w3.org/2000/svg"
 width="980.000000pt" height="836.000000pt" viewBox="0 0 980.000000 836.000000"
 preserveAspectRatio="xMidYMid meet">
<metadata>
Created by potrace 1.16, written by Peter Selinger 2001-2019
</metadata>
<g transform="translate(0.000000,836.000000) scale(0.100000,-0.100000)"
fill="#000000" stroke="none">
<path d="M8630 8350 c-362 -9 -450 -18 -450 -44 0 -7 36 -73 80 -146 44 -73
80 -140 80 -147 0 -21 -367 -257 -1250 -805 -793 -492 -1270 -778 -1295 -778
-13 0 -338 68 -1230 258 -335 72 -619 132 -631 134 -14 2 -588 -346 -1715
-1040 -932 -573 -1722 -1060 -1756 -1082 -47 -30 -63 -46 -63 -63 0 -20 104
-202 151 -266 17 -22 18 -22 50 -5 40 20 621 374 1674 1019 805 493 1263 772
1550 943 l170 101 75 -15 c41 -9 354 -74 695 -145 863 -181 1053 -219 1086
-219 41 0 312 159 1444 850 820 501 1171 713 1215 735 l34 18 38 -43 c21 -23
68 -90 105 -149 36 -58 70 -110 74 -114 8 -10 -1 -26 314 557 185 342 234 440
224 447 -16 10 -240 9 -669 -1z"/>
<path d="M7925 5890 c-491 -31 -1010 -229 -1143 -437 -46 -71 -52 -130 -19
-185 122 -209 539 -386 1067 -453 285 -36 683 -30 984 16 392 59 755 203 894
353 117 127 110 223 -24 345 -180 165 -607 314 -1004 351 -158 14 -597 20
-755 10z"/>
<path d="M6740 4606 l0 -283 61 -67 c78 -84 162 -144 280 -200 362 -169 935
-256 1435 -216 282 23 581 81 779 150 191 68 387 187 442 269 48 71 55 120 60
384 l5 248 -133 -69 c-360 -188 -778 -283 -1309 -299 -610 -18 -1159 96 -1524
316 -46 28 -87 51 -90 51 -3 0 -6 -128 -6 -284z"/>
<path d="M4670 3979 c-364 -14 -677 -85 -946 -214 -284 -135 -390 -269 -325
-411 103 -228 623 -422 1265 -474 735 -58 1618 183 1741 476 97 232 -315 488
-955 594 -98 16 -561 46 -590 38 -3 -1 -88 -5 -190 -9z"/>
<path d="M6740 3648 l0 -293 91 -84 c111 -100 173 -141 301 -198 299 -131 807
-214 1223 -199 461 17 833 97 1135 244 111 54 146 76 197 127 51 51 65 72 83
131 21 62 23 95 28 318 l4 250 -28 -19 c-492 -328 -1416 -450 -2224 -294 -314
61 -569 151 -726 256 -33 22 -65 43 -71 47 -10 6 -13 -54 -13 -286z"/>
<path d="M3370 2692 l0 -288 83 -80 c95 -93 140 -126 256 -183 170 -86 440
-157 736 -196 578 -74 1212 -1 1628 189 102 46 168 90 263 175 l81 71 7 296
c4 163 5 298 3 301 -3 3 -33 -14 -68 -37 -131 -89 -366 -182 -622 -245 -286
-70 -289 -70 -842 -70 -553 0 -551 0 -838 72 -258 64 -486 154 -615 242 -34
22 -63 41 -66 41 -4 0 -6 -130 -6 -288z"/>
<path d="M6740 2698 c1 -235 3 -286 16 -303 38 -52 146 -151 207 -192 463
-308 1574 -379 2287 -147 203 66 416 189 486 281 15 20 33 58 40 84 16 62 31
524 17 532 -5 3 -74 -25 -152 -63 -308 -151 -576 -223 -983 -265 -170 -17
-576 -20 -743 -5 -460 42 -871 161 -1107 321 -31 22 -59 39 -62 39 -4 0 -6
-127 -6 -282z"/>
<path d="M1305 2073 c-533 -28 -1079 -217 -1242 -431 -108 -142 -35 -289 211
-427 152 -85 475 -185 707 -219 190 -28 488 -39 735 -27 276 14 419 32 602 77
325 79 516 175 660 328 98 105 102 157 21 270 -191 267 -978 467 -1694 429z"/>
<path d="M6740 1731 l0 -289 69 -65 c179 -168 345 -250 672 -331 180 -45 321
-63 591 -77 315 -16 628 1 853 46 373 75 655 199 793 349 40 44 53 67 62 110
11 55 19 510 9 520 -3 3 -77 -28 -164 -70 -270 -130 -552 -209 -895 -251 -178
-21 -691 -24 -870 -5 -468 52 -765 141 -1045 312 -36 22 -68 40 -70 40 -3 0
-5 -130 -5 -289z"/>
<path d="M3376 1954 c-3 -26 -6 -149 -6 -274 l0 -228 66 -71 c37 -40 94 -91
128 -115 192 -137 507 -235 906 -282 180 -22 616 -25 800 -6 489 52 856 177
1053 361 82 76 89 98 98 311 6 151 3 350 -6 350 -1 0 -67 -31 -146 -69 -188
-90 -309 -134 -493 -181 -169 -43 -355 -73 -555 -91 -176 -15 -655 -6 -811 15
-330 46 -604 125 -864 250 -88 42 -160 76 -161 76 -1 0 -5 -21 -9 -46z"/>
<path d="M3 1034 c-3 -9 -3 -139 0 -288 l6 -271 72 -68 c177 -171 448 -285
834 -352 231 -40 347 -49 625 -49 504 -1 872 71 1194 230 120 60 195 116 270
201 l59 67 -5 263 c-3 145 -8 266 -12 270 -3 4 -82 -30 -174 -75 -340 -167
-647 -239 -1117 -262 -191 -9 -528 0 -707 20 -364 41 -609 110 -875 246 -137
71 -165 81 -170 68z"/>
<path d="M3376 1028 c-3 -13 -6 -140 -6 -283 l0 -260 98 -89 c53 -49 131 -108
172 -132 174 -102 469 -191 761 -230 167 -22 654 -30 842 -15 331 28 628 101
841 208 120 60 167 93 264 187 l82 80 0 225 c0 124 -3 249 -6 278 l-7 52 -136
-69 c-279 -141 -579 -230 -881 -262 -168 -17 -832 -17 -1000 0 -311 33 -638
131 -906 273 -109 58 -112 59 -118 37z"/>
<path d="M9636 970 c-325 -170 -649 -244 -1191 -270 -632 -30 -1143 62 -1567
283 -65 34 -121 58 -125 54 -13 -14 -16 -377 -4 -456 22 -140 62 -199 188
-277 488 -305 1410 -392 2158 -204 301 75 478 165 646 327 l46 45 7 256 c3
141 3 271 -1 289 l-8 31 -149 -78z"/>
</g>
</svg>
