<svg width="400" height="402" viewBox="0 0 400 402" fill="none" xmlns="http://www.w3.org/2000/svg">
<g clip-path="url(#clip0)">
<path d="M350 30.15H320C320 22.1537 316.839 14.485 311.213 8.83073C305.587 3.17651 297.957 0 290 0C282.044 0 274.413 3.17651 268.787 8.83073C263.161 14.485 260 22.1537 260 30.15H140C140 22.1537 136.839 14.485 131.213 8.83073C125.587 3.17651 117.956 0 110 0C102.044 0 94.4129 3.17651 88.7868 8.83073C83.1607 14.485 80 22.1537 80 30.15H50C36.7392 30.15 24.0215 35.4442 14.6447 44.8679C5.26784 54.2916 0 67.0729 0 80.4L0 336.675C0 354 6.84819 370.616 19.0381 382.867C31.2279 395.118 47.7609 402 65 402H335C352.239 402 368.772 395.118 380.962 382.867C393.152 370.616 400 354 400 336.675V80.4C400 67.0729 394.732 54.2916 385.355 44.8679C375.979 35.4442 363.261 30.15 350 30.15V30.15ZM280 30.15C280 27.4846 281.054 24.9283 282.929 23.0436C284.804 21.1588 287.348 20.1 290 20.1C292.652 20.1 295.196 21.1588 297.071 23.0436C298.946 24.9283 300 27.4846 300 30.15V50.25C300 52.9154 298.946 55.4717 297.071 57.3564C295.196 59.2412 292.652 60.3 290 60.3C287.348 60.3 284.804 59.2412 282.929 57.3564C281.054 55.4717 280 52.9154 280 50.25V30.15ZM100 30.15C100 27.4846 101.054 24.9283 102.929 23.0436C104.804 21.1588 107.348 20.1 110 20.1C112.652 20.1 115.196 21.1588 117.071 23.0436C118.946 24.9283 120 27.4846 120 30.15V50.25C120 52.9154 118.946 55.4717 117.071 57.3564C115.196 59.2412 112.652 60.3 110 60.3C107.348 60.3 104.804 59.2412 102.929 57.3564C101.054 55.4717 100 52.9154 100 50.25V30.15ZM20 80.4C19.997 75.4629 21.2026 70.6009 23.5106 66.2426C25.8185 61.8843 29.1579 58.1636 33.2344 55.4085C38.1825 52.0398 44.0234 50.2426 50 50.25H80C80 58.2463 83.1607 65.915 88.7868 71.5693C94.4129 77.2235 102.044 80.4 110 80.4C117.956 80.4 125.587 77.2235 131.213 71.5693C136.839 65.915 140 58.2463 140 50.25H260C260 58.2463 263.161 65.915 268.787 71.5693C274.413 77.2235 282.044 80.4 290 80.4C297.957 80.4 305.587 77.2235 311.213 71.5693C316.839 65.915 320 58.2463 320 50.25H350C357.424 50.2569 364.583 53.0274 370.094 58.0269C375.606 63.0264 379.079 69.9004 379.844 77.3222C379.948 78.3448 380 79.3721 380 80.4V120.6H20V80.4ZM335 381.9H65C56.1478 381.885 47.4967 379.245 40.131 374.311C32.7652 369.376 27.0125 362.367 23.5938 354.16C31.5064 359.151 40.6584 361.798 50 361.8H350C359.342 361.798 368.494 359.151 376.406 354.16C372.987 362.367 367.235 369.376 359.869 374.311C352.503 379.245 343.852 381.885 335 381.9V381.9ZM380 311.55C379.992 319.544 376.828 327.208 371.204 332.86C365.58 338.512 357.954 341.692 350 341.7H50C42.046 341.692 34.4202 338.512 28.7959 332.86C23.1716 327.208 20.0083 319.544 20 311.55V140.7H380V311.55Z" fill="white"/>
<path d="M43.3179 182.562V195.812H41.3403C32.3755 195.943 25.2124 198.404 19.8511 203.194C14.4897 207.984 11.3037 214.774 10.293 223.563C15.4346 218.158 22.0044 215.455 30.0024 215.455C38.4839 215.455 45.1636 218.443 50.0415 224.42C54.9634 230.396 57.4243 238.109 57.4243 247.557C57.4243 257.313 54.5459 265.223 48.7891 271.288C43.0762 277.308 35.5615 280.318 26.2451 280.318C16.665 280.318 8.88672 276.781 2.91016 269.706C-3.02246 262.63 -5.98877 253.358 -5.98877 241.888V236.417C-5.98877 219.586 -1.90186 206.402 6.27197 196.866C14.4897 187.33 26.2891 182.562 41.6699 182.562H43.3179ZM26.1133 228.375C22.5977 228.375 19.3677 229.364 16.4233 231.341C13.5229 233.319 11.3916 235.956 10.0293 239.251V244.129C10.0293 251.249 11.5234 256.917 14.5117 261.136C17.5 265.311 21.3672 267.398 26.1133 267.398C30.8594 267.398 34.6167 265.619 37.3853 262.059C40.1538 258.5 41.5381 253.819 41.5381 248.019C41.5381 242.218 40.1318 237.494 37.3193 233.846C34.5068 230.199 30.7715 228.375 26.1133 228.375ZM399.604 208.336C399.604 213.038 398.396 217.235 395.979 220.926C393.562 224.574 390.266 227.452 386.091 229.562C391.101 231.891 394.946 235.077 397.627 239.12C400.352 243.163 401.714 247.733 401.714 252.831C401.714 261.268 398.857 267.97 393.145 272.936C387.432 277.857 379.829 280.318 370.337 280.318C360.801 280.318 353.154 277.835 347.397 272.87C341.685 267.904 338.828 261.224 338.828 252.831C338.828 247.689 340.19 243.075 342.915 238.988C345.64 234.901 349.463 231.759 354.385 229.562C350.254 227.452 346.98 224.574 344.563 220.926C342.19 217.235 341.003 213.038 341.003 208.336C341.003 200.162 343.64 193.68 348.914 188.89C354.187 184.1 361.306 181.705 370.271 181.705C379.28 181.705 386.421 184.1 391.694 188.89C396.968 193.68 399.604 200.162 399.604 208.336ZM385.696 252.04C385.696 247.293 384.268 243.47 381.411 240.57C378.599 237.625 374.863 236.153 370.205 236.153C365.547 236.153 361.812 237.604 358.999 240.504C356.23 243.404 354.846 247.25 354.846 252.04C354.846 256.742 356.208 260.499 358.933 263.312C361.702 266.124 365.503 267.53 370.337 267.53C375.171 267.53 378.928 266.168 381.609 263.443C384.333 260.719 385.696 256.917 385.696 252.04ZM383.652 208.929C383.652 204.754 382.444 201.327 380.027 198.646C377.61 195.921 374.358 194.559 370.271 194.559C366.184 194.559 362.954 195.855 360.581 198.448C358.208 200.997 357.021 204.491 357.021 208.929C357.021 213.324 358.208 216.817 360.581 219.41C362.998 222.003 366.25 223.299 370.337 223.299C374.424 223.299 377.654 222.003 380.027 219.41C382.444 216.817 383.652 213.324 383.652 208.929Z" fill="white"/>
<path d="M245.83 186.852L198.018 299H166.729L214.629 193.883H153.633V171.031H245.83V186.852Z" fill="white"/>
</g>
<defs>
<clipPath id="clip0">
<rect width="400" height="402" fill="white"/>
</clipPath>
</defs>
</svg>
